<svg xmlns="http://www.w3.org/2000/svg" shape-rendering="geometricPrecision" viewBox="8 8 16 16"><g class="text-[#243647] dark:!text-[#DEF1FF]" clip-path="url(#a)"><path fill="currentColor" fill-rule="evenodd" d="M17.4 12a.4.4 0 0 1-.4-.4c0-.88.72-1.6 1.6-1.6h.4a2 2 0 0 1 2 2v2.2a.5.5 0 0 1-.72.44l-.17-.09A2 2 0 0 1 19 12.76V12h-1.6Zm.2 8a.4.4 0 0 0 .4-.4c0-.88-.72-1.6-1.6-1.6H16a3 3 0 0 1-3-3v-2.6a.4.4 0 0 0-.4-.4c-.88 0-1.6.72-1.6 1.6V15a5 5 0 0 0 5 5h1.6Z" clip-rule="evenodd"/><path fill="#58B9FF" d="M13 21.5a.5.5 0 0 1-.5.5H12a1 1 0 0 1-1-1v-1.2c0-.36.4-.6.72-.44l.17.09A2 2 0 0 1 13 21.24v.26Zm6.67.5a.67.67 0 0 1-.67-.67V19a3 3 0 0 0-3-3h-.67c-.73 0-1.33-.6-1.33-1.33 0-.37.3-.67.67-.67H16a5 5 0 0 1 5 5v1.67c0 .73-.6 1.33-1.33 1.33Z"/></g><defs><clipPath id="a"><path fill="#fff" d="M0 0h32v32H0z"/></clipPath></defs></svg>